<?xml version="1.0" encoding="UTF-8"?><svg id="a" xmlns="http://www.w3.org/2000/svg" viewBox="0 0 24 24"><defs><style>.b{fill:#010101;}</style></defs><path class="b" d="M17.4,2.7c0,0,0-.2,0-.2-.7-1.5-2.3-2.5-4-2.5-2.4,0-4.4,2-4.4,4.4V14.2l-1.4-1.3c-.2-2.5-2.3-4.3-4.9-4.2,0,2.6,1.7,4.6,4.2,4.9l2.1,1.9v8c0,.3,.2,.5,.5,.5s.5-.2,.5-.5v-1l2-1.8c2.5-.2,4.4-2.3,4.3-4.9-2.5,0-4.6,1.7-4.8,4.1l-1.4,1.3V4.4c0-1.9,1.5-3.4,3.4-3.4s2.4,.7,3,1.8c-2.2,.3-3.9,2.1-3.9,4.3v5.2l2.2-2.2,2.2,2.2,2.2-2.2,2.2,2.2V7.1c0-2.2-1.7-4.1-3.9-4.3h0Z"/></svg>