<?xml version="1.0" encoding="UTF-8"?><svg id="a" xmlns="http://www.w3.org/2000/svg" viewBox="0 0 24 24"><defs><style>.b{fill:#010101;}</style></defs><path class="b" d="M12,.2C5.4,.2,0,5.6,0,12.2v6.1c0,1.5,1.2,2.7,2.7,2.7H7v1.7c0,.6,.5,1,1,1s1-.5,1-1v-.7c0-.2,.1-.3,.3-.3s.3,.1,.3,.3v.7c0,.6,.5,1,1,1s1-.5,1-1v-.7c0-.2,.1-.3,.3-.3s.3,.1,.3,.3v.7c0,.6,.5,1,1,1s1-.5,1-1v-.7c0-.2,.1-.3,.3-.3s.3,.1,.3,.3v.7c0,.6,.5,1,1,1s1-.5,1-1v-1.7h4.3c1.5,0,2.7-1.2,2.7-2.7v-6.1C24,5.6,18.6,.2,12,.2h0Zm-1.5,19l1.2-2c.1-.2,.5-.2,.6,0l1.2,2c.1,.2,0,.5-.3,.5h-2.4c-.3,0-.4-.3-.3-.5h0ZM3.3,14.5c0-1.8,1.4-3.2,3.2-3.2s3.2,1.4,3.2,3.2-1.4,3.2-3.2,3.2c-1.8,0-3.2-1.4-3.2-3.2h0Zm14.1,3.2c-1.8,0-3.2-1.4-3.2-3.2s1.4-3.2,3.2-3.2,3.2,1.4,3.2,3.2c0,1.8-1.4,3.2-3.2,3.2Z"/></svg>