<svg xmlns="http://www.w3.org/2000/svg" viewBox="0 0 144 72">
  <path fill="#05a" d="M0 0h144v72H0z"/>
  <path fill="#eee" d="M0 0h61v41H0zm89 17zm26 3c-7 0-8-3-8-3s-1 3-8 3-9-2-10-3l1 18c0 18 17 25 17 25s17-7 17-25l1-18c-1 1-3 3-10 3zm10-3z"/>
  <path fill="#3ad" d="M107 46H95c1 6 12 13 12 13s11-7 12-13h-12z"/>
  <path fill="#fc5" d="M113 25s6 8 2 12-5-2-3-4l1-8zm-15 9s1-9 7-9 3 5 0 5-7 4-7 4zm15 7s-8 6-12 1 2-5 3-3c2 2 9 2 9 2z"/>
  <path fill="#e56" d="m15 10 4-4 26 26-4 4zm0 22L41 6l4 4-26 26zM26 1h7v39h-7zM6 16h48v7H6z"/>
</svg>