<svg id="AO" viewBox="0 0 48 48" xmlns="http://www.w3.org/2000/svg">
	<path fill="#445" d="M48 40c0 1-1 2-2 2H2c-1 0-2-1-2-2V24h48v16z"/><path fill="#E56" d="M48 24H0V8c0-1 1-2 2-2h44c1 0 2 1 2 2v16z"/><path fill="#FC5" d="M36 36.4L27 28c.6-.3 1-.7 1.5-1.2 2-2.3 3-5 2.7-8-.2-3-1.6-5.6-3.8-7.6L26 12.8c2 1.5 3 3.7 3.2 6 .2 2.5-.6 4.8-2.2 6.7-.4.4-.8 1-1.3 1.2L18.4 20 17 21.5l6.8 6.3c-3 1.3-6.8 1-9.5-1.4L13 28c2 1.7 4.7 2.6 7.2 2.6 1.8 0 3.6-.5 5.2-1.4l9.2 8.6 1.4-1.4zM24.3 12.6h-3L20 10l-1 2.6h-3l2 2.2-.7 3.2 2.8-1.6 3 1.6-1-3.2 2.4-2.2z"/>
</svg>