<svg xmlns="http://www.w3.org/2000/svg" viewBox="0 0 49.8 38.2">
  <defs>
    <clipPath id="a" transform="translate(1 1)">
      <rect width="19.2" height="14.4" x=".8" y="1" fill="none" rx="2.4"/>
    </clipPath>
  </defs>
  <rect width="48" height="36" x="1.8" y="2.2" fill="#05a" rx="2"/>
  <g fill="#020202" stroke-miterlimit="4.8" clip-path="url(#a)">
    <path stroke="#fff" stroke-width="3.6" d="M1.8 1.4 21 15.8m-.7-14.4L1.1 15.8"/>
    <path stroke="#e56" stroke-width="2.4" d="M1.8 1.4 21 15.8m-.7-14.4L1.1 15.8"/>
    <path stroke="#fff" stroke-width="6" d="M11.4 1.4v14.4M1.8 8.6H21"/>
    <path stroke="#e56" stroke-width="3.6" d="M11.4 1.4v14.4M1.8 8.6H21"/>
  </g>
  <path fill="#fff" d="M15.3 28.7 13 29l-1 2-1-2.1-2.3-.3 1.7-1.6-.3-2.3 2 1.1 2-1-.4 2.3 1.6 1.6zm23.3-10.9-1-1.8-2.1-.2 1.4-1.5-.5-2 1.9.8 1.8-1.1-.2 2.1 1.6 1.3-2.1.5-.8 1.9zm-8.2 6.5-1.5-.8-1.6.8.4-1.7-1.3-1.2 1.7-.3.8-1.5.8 1.5 1.7.3-1.2 1.2.2 1.7zM44.7 26l-1.3.2-.6 1.1-.5-1.2-1.3-.2 1-.9-.2-1.2 1.1.6 1.2-.6-.3 1.3.9.9zm-10.5 8.8-.9-1.1-1.3.1.7-1.2-.5-1.2 1.3.3 1.1-.8v1.3l1.2.8-1.3.4-.3 1.4z"/>
</svg>