<svg xmlns="http://www.w3.org/2000/svg" viewBox="0 0 48 36">
  <rect width="48" height="36" fill="#45a" rx="2"/>
  <path fill="#fc5" d="M5 0h36v36"/>
  <path fill="#fff" d="M5.3 6 4 5.3 2.8 6 3 4.6 2 3.5l1.4-.2L4 2l.6 1.3 1.4.2-1 1L5.3 6zm4 4L8 9.3l-1.2.7.2-1.4-1-1.1 1.4-.2L8 6l.6 1.3 1.4.2-1 1 .3 1.5zm4 4-1.3-.7-1.2.7.2-1.4-1-1.1 1.4-.2.6-1.3.6 1.3 1.4.2-1 1 .3 1.5zm4 4-1.3-.7-1.2.7.2-1.4-1-1.1 1.4-.2.6-1.3.6 1.3 1.4.2-1 1 .3 1.5zm4 4-1.3-.7-1.2.7.2-1.4-1-1.1 1.4-.2.6-1.3.6 1.3 1.4.2-1 1 .3 1.5zm4 4-1.3-.7-1.2.7.2-1.4-1-1.1 1.4-.2.6-1.3.6 1.3 1.4.2-1 1 .3 1.5zm4 4-1.3-.7-1.2.7.2-1.4-1-1.1 1.4-.2.6-1.3.6 1.3 1.4.2-1 1 .3 1.5zm4 4-1.3-.7-1.2.7.2-1.4-1-1.1 1.4-.2.6-1.3.6 1.3 1.4.2-1 1 .3 1.5z"/>
</svg>